<svg xmlns="http://www.w3.org/2000/svg" width="430" height="430" style="width:100%;height:100%;transform:translate3d(0,0,0);content-visibility:visible" viewBox="0 0 430 430"><defs><clipPath id="z"><path d="M0 0h430v430H0z"/></clipPath><clipPath id="J"><path d="M0 0h430v430H0z"/></clipPath><clipPath id="l"><path d="M0 0h430v430H0z"/></clipPath><clipPath id="m"><path d="M0 0h430v430H0z"/></clipPath><clipPath id="G"><path d="M0 0h430v430H0z"/></clipPath><clipPath id="o"><path d="M0 0h430v430H0z"/></clipPath><clipPath id="p"><path d="M0 0h430v430H0z"/></clipPath><clipPath id="D"><path d="M0 0h430v430H0z"/></clipPath><clipPath id="q"><path d="M0 0h430v430H0z"/></clipPath><clipPath id="s"><path d="M0 0h430v430H0z"/></clipPath><clipPath id="r"><path d="M0 0h430v430H0z"/></clipPath><clipPath id="A"><path d="M0 0h430v430H0z"/></clipPath><clipPath id="u"><path d="M0 0h430v430H0z"/></clipPath><clipPath id="y"><path d="M0 0h430v430H0z"/></clipPath><clipPath id="v"><path d="M0 0h430v430H0z"/></clipPath><mask id="n" mask-type="alpha"><use xmlns:ns1="http://www.w3.org/1999/xlink" ns1:href="#a"/></mask><mask id="L" mask-type="alpha"><use xmlns:ns2="http://www.w3.org/1999/xlink" ns2:href="#b"/></mask><mask id="I" mask-type="alpha"><use xmlns:ns3="http://www.w3.org/1999/xlink" ns3:href="#c"/></mask><mask id="t" mask-type="alpha"><g filter="url(#d)"><path fill="#fff" d="M0 0h430v430H0z" opacity="0"/><use xmlns:ns4="http://www.w3.org/1999/xlink" ns4:href="#e"/></g></mask><mask id="E" mask-type="alpha"><use xmlns:ns5="http://www.w3.org/1999/xlink" ns5:href="#f"/></mask><mask id="x" mask-type="alpha"><g filter="url(#g)"><path fill="#fff" d="M0 0h430v430H0z" opacity="0"/><use xmlns:ns6="http://www.w3.org/1999/xlink" ns6:href="#h"/></g></mask><mask id="w" mask-type="alpha"><g filter="url(#i)"><path fill="#fff" d="M0 0h430v430H0z" opacity="0"/><use xmlns:ns7="http://www.w3.org/1999/xlink" ns7:href="#j"/></g></mask><mask id="C" mask-type="alpha"><use xmlns:ns8="http://www.w3.org/1999/xlink" ns8:href="#k"/></mask><filter id="K" width="300%" height="300%" x="-100%" y="-100%"><feGaussianBlur result="filter_result_0"/></filter><filter id="H" width="300%" height="300%" x="-100%" y="-100%"><feGaussianBlur result="filter_result_0"/></filter><filter id="d" width="100%" height="100%" x="0%" y="0%" filterUnits="objectBoundingBox"><feComponentTransfer in="SourceGraphic"><feFuncA tableValues="1.0 0.0" type="table"/></feComponentTransfer></filter><filter id="F" width="300%" height="300%" x="-100%" y="-100%"><feGaussianBlur result="filter_result_0" stdDeviation="52.5 52.5"/></filter><filter id="g" width="100%" height="100%" x="0%" y="0%" filterUnits="objectBoundingBox"><feComponentTransfer in="SourceGraphic"><feFuncA tableValues="1.0 0.0" type="table"/></feComponentTransfer></filter><filter id="i" width="100%" height="100%" x="0%" y="0%" filterUnits="objectBoundingBox"><feComponentTransfer in="SourceGraphic"><feFuncA tableValues="1.0 0.0" type="table"/></feComponentTransfer></filter><filter id="B" width="300%" height="300%" x="-100%" y="-100%"><feGaussianBlur result="filter_result_0"/></filter><g id="b" clip-path="url(#l)" style="display:none"><g fill-opacity="0" stroke-linecap="round" stroke-linejoin="round" clip-path="url(#m)" mask="url(#n)" style="display:none"><path class="primary" style="display:none"/><path class="primary" style="display:none"/><path class="primary" style="display:none"/><path class="primary" style="display:none"/><path class="primary" style="display:none"/><path class="primary" style="display:none"/></g><path fill-opacity="0" stroke-linecap="round" stroke-linejoin="round" class="secondary" style="display:none"/><path fill-opacity="0" stroke-linecap="round" stroke-linejoin="round" class="secondary" style="display:none"/><g style="display:none"><path class="quinary"/><path fill-opacity="0" stroke-linecap="round" stroke-linejoin="round" class="secondary"/><path fill-opacity="0" stroke-linecap="round" stroke-linejoin="round" class="secondary"/></g></g><g id="c" clip-path="url(#o)" style="display:none"><g fill-opacity="0" stroke-linecap="round" stroke-linejoin="round" clip-path="url(#p)" style="display:none"><path class="primary" style="display:none"/><path class="primary" style="display:none"/><path class="primary" style="display:none"/><path class="primary" style="display:none"/><path class="primary" style="display:none"/><path class="primary" style="display:none"/></g><path fill-opacity="0" stroke-linecap="round" stroke-linejoin="round" class="secondary" style="display:none"/><g style="display:none"><path class="quinary"/><path fill-opacity="0" stroke-linecap="round" stroke-linejoin="round" class="secondary"/><path fill-opacity="0" stroke-linecap="round" stroke-linejoin="round" class="secondary"/></g><path fill-opacity="0" stroke-linecap="round" stroke-linejoin="round" class="secondary" style="display:none"/></g><g id="f" clip-path="url(#q)" style="display:block"><g fill-opacity="0" stroke-linecap="round" stroke-linejoin="round" clip-path="url(#r)" style="display:none"><path class="primary" style="display:none"/><path class="primary" style="display:none"/><path class="primary" style="display:none"/><path class="primary" style="display:none"/><path class="primary" style="display:none"/><path class="primary" style="display:none"/></g><g fill-opacity="0" stroke="#08A88A" stroke-linecap="round" stroke-linejoin="round" stroke-width="12" clip-path="url(#s)" mask="url(#t)" style="display:block"><path d="M-46.998 0h93.996" class="primary" style="display:block" transform="translate(248.655 335.209)"/><path d="m-19.9.212 13.228 13.131 26.687-26.686" class="primary" style="display:block" transform="translate(154.955 335.209)"/><path d="M-46.998 0h93.996" class="primary" style="display:block" transform="translate(248.655 268.209)"/><path d="m-19.9.212 13.228 13.131 26.687-26.686" class="primary" style="display:block" transform="translate(154.955 268.209)"/><path d="M-46.998 0h93.996" class="primary" style="display:block" transform="translate(248.655 201.709)"/><path d="m-19.9.212 13.228 13.131 26.687-26.686" class="primary" style="display:block" transform="translate(154.955 201.709)"/></g><path fill="red" d="M26.69-186.57h.06v106.81h106.68v-.06L26.69-186.57z" style="display:block" transform="translate(214 214.76)"/><g fill-opacity="0" stroke="#121331" stroke-linecap="round" stroke-linejoin="round" stroke-width="12" style="display:block"><path d="M241.69 28.19H81.57v373.14h266.86V134.94L241.69 28.19z" class="secondary"/><path d="M241.687 28.194V134.94h106.746" class="secondary"/></g><g style="display:block"><path fill="red" d="M241.69 28.19s3.3 2.32 53 52.75c50.31 51.06 53.74 54 53.74 54" class="quinary"/><path fill-opacity="0" stroke="#121331" stroke-linecap="round" stroke-linejoin="round" stroke-width="12" d="M241.687 28.194s3.306 2.315 53 52.746c50.313 51.06 53.746 54 53.746 54" class="secondary"/></g></g><g id="k" clip-path="url(#u)" style="display:none"><g fill-opacity="0" stroke-linecap="round" stroke-linejoin="round" clip-path="url(#v)" mask="url(#w)" style="display:none"><path class="primary" style="display:none"/><path class="primary" style="display:none"/><path class="primary" style="display:none"/><path class="primary" style="display:none"/><path class="primary" style="display:none"/><path class="primary" style="display:none"/></g><g mask="url(#x)" style="display:none"><path fill-opacity="0" stroke-linecap="round" stroke-linejoin="round" class="secondary"/><path class="quinary"/><path fill-opacity="0" stroke-linecap="round" stroke-linejoin="round" class="secondary"/><path fill-opacity="0" stroke-linecap="round" stroke-linejoin="round" class="secondary"/></g><g fill-opacity="0" stroke-linecap="round" stroke-linejoin="round" clip-path="url(#y)" style="display:none"><path class="primary" style="display:none"/><path class="primary" style="display:none"/><path class="primary" style="display:none"/><path class="primary" style="display:none"/><path class="primary" style="display:none"/><path class="primary" style="display:none"/></g><path fill-opacity="0" stroke-linecap="round" stroke-linejoin="round" class="secondary" style="display:none"/><g style="display:none"><path class="quinary"/><path fill-opacity="0" stroke-linecap="round" stroke-linejoin="round" class="secondary"/><path fill-opacity="0" stroke-linecap="round" stroke-linejoin="round" class="secondary"/></g><path fill-opacity="0" stroke-linecap="round" stroke-linejoin="round" class="secondary" style="display:none"/></g><g id="h" style="display:none"><path fill-opacity="0"/><path/></g><g id="j" style="display:none"><path fill-opacity="0"/><path/></g><path id="a" style="display:none"/><path id="e" fill="red" d="M26.69-186.57h.06v106.81h106.68v-.06L26.69-186.57z" style="display:block" transform="translate(214 214.76)"/></defs><g clip-path="url(#z)"><g clip-path="url(#A)" filter="url(#B)" mask="url(#C)" style="display:none"><g class="design"><path class="primary"/></g><g class="design"><path class="secondary"/></g></g><g clip-path="url(#D)" mask="url(#E)" style="display:block"><g filter="url(#F)" transform="rotate(-94 243.424 -11.565) scale(2.4)"><g class="design"><path fill="#4BE1EC" d="M0-250c137.975 0 250 112.025 250 250S137.975 250 0 250-250 137.975-250 0-137.975-250 0-250z" class="primary"/></g><g class="design"><path fill="#CB5EEE" d="M113.242-295.384c97.478 0 176.5 79.022 176.5 176.5s-79.022 176.5-176.5 176.5c-43.948 0-74.396-34.057-105.29-60.631-37.631-32.369-71.21-62.338-71.21-115.869 0-97.478 79.022-176.5 176.5-176.5z" class="secondary"/></g></g></g><g clip-path="url(#G)" filter="url(#H)" mask="url(#I)" style="display:none"><g class="design"><path class="primary"/></g><g class="design"><path class="secondary"/></g></g><g clip-path="url(#J)" filter="url(#K)" mask="url(#L)" style="display:none"><g class="design"><path class="primary"/></g><g class="design"><path class="secondary"/></g></g></g></svg>